<?xml version="1.0" encoding="UTF-8"?>
<svg id="_レイヤー_2" data-name="レイヤー_2" xmlns="http://www.w3.org/2000/svg" viewBox="0 0 2221.27 312.84">
  <defs>
    <style>
      .cls-1 {
        fill: #040000;
      }
    </style>
  </defs>
  <g id="_レイヤー_1-2" data-name="レイヤー_1">
    <g id="LOGO">
      <g>
        <path class="cls-1" d="M279.8,69.16c0-14.93.02-64.92.02-64.92,0-2.04-1.65-3.69-3.69-3.69h-31.87c-2.04,0-3.68,1.65-3.69,3.68l-.02,64.92c0,6.04-4.9,10.94-10.94,10.94h-32.88c-.08,0-.14.06-.14.14v35.68c0,.08.06.14.14.14h38.42c2.98,0,5.39,2.42,5.39,5.4l-.06,190.8c0,.08.06.14.14.14h38.96c.08,0,.14-.06.14-.14l.06-169.79c0-14.58,11.83-26.4,26.41-26.4h43.15c.08,0,.14-.06.14-.14v-35.68c0-.08-.06-.14-.14-.14h-58.61c-6.18,0-10.95-4.9-10.95-10.93Z"/>
        <path class="cls-1" d="M76.08,312.39c-11.74,0-23.49-2.42-33.96-7-19.59-8.57-33.69-24.04-41.89-45.97-.7-1.86.2-3.93,2.03-4.7l26.24-11.01c.46-.19.94-.29,1.43-.29,1.48,0,2.8.87,3.37,2.22,12.15,28.5,32.34,32.75,43.3,32.75,24.81,0,36.12-18.17,36.12-35.06,0-21.16-15.71-28-35.6-36.66-24.74-10.9-43.06-19.6-53.63-32.42-8.9-11.08-10.12-22.12-10.12-32.4,0-18.66,6.29-34.34,18.2-45.35,11.52-10.64,27.45-16.27,46.07-16.27,26.27,0,46.67,12.64,58.99,36.56.92,1.79.21,4-1.57,4.94l-24.78,13.02c-.53.28-1.13.43-1.72.43-1.37,0-2.61-.74-3.23-1.94-6.21-11.91-17.14-19.02-29.25-19.02-19.6,0-26.56,13.44-26.56,24.96,0,16.2,11.14,20.95,35.55,31.36,29.5,12.29,46.04,22.46,55.28,34,10.29,12.57,11.68,25.04,11.68,35.58,0,22.02-7.62,40.5-22.05,53.46-13.49,12.12-32.64,18.8-53.9,18.8Z"/>
        <path class="cls-1" d="M852.12.55c-2.04,0-3.69,1.65-3.69,3.69v81.16c0,9.96-11.82,13.86-20.5,8.98-.01,0,0,0,0,0-16.81-9.43-35.91-15.26-56.55-15.26-64.79,0-117.2,52.97-116.28,117.96.88,62.63,52,113.75,114.64,114.61,64.98.9,117.94-51.51,117.94-116.29V4.24c0-2.04-1.65-3.69-3.69-3.69h-31.87ZM849.35,193.95c.81,44.24-35.22,80.25-79.45,79.43-41.69-.77-75.71-34.79-76.49-76.48-.83-44.25,35.21-80.28,79.46-79.45,41.69.78,75.71,34.81,76.47,76.51Z"/>
        <path class="cls-1" d="M497.79,312.39c-15.8,0-45.8-3.68-69.18-28.33-17.42-19-20.72-38.6-20.72-68.12V83.43c0-2.03,1.65-3.69,3.69-3.69h31.87c2.03,0,3.69,1.65,3.69,3.69v128.16c0,15.62,0,30.37,10.89,44.54,6.24,7.95,18.21,17.43,39.77,17.43s33.53-9.48,39.77-17.43c10.89-14.17,10.89-28.92,10.89-44.54V83.43c0-2.03,1.65-3.69,3.69-3.69h31.87c2.03,0,3.68,1.65,3.68,3.69v132.51c0,29.51-3.3,49.11-20.69,68.12-23.41,24.65-53.41,28.33-69.21,28.33Z"/>
        <g>
          <path class="cls-1" d="M992.84,55.56c15.39,0,28.01-12.75,27.79-28.18-.2-14.32-11.59-26.33-25.87-27.31-16.09-1.1-29.69,11.81-29.69,27.71s12.53,27.79,27.77,27.79Z"/>
          <path class="cls-1" d="M976.92,79.75c-2.04,0-3.68,1.65-3.69,3.68v25.12c0,.08,0,.14,0,.14s0,.06,0,.14v199.86c0,2.04,1.65,3.69,3.69,3.69h31.87c2.04,0,3.69-1.65,3.69-3.69V96.16c0-.08,0-.14,0-.14s0-.06,0-.14v-12.44c0-2.04-1.65-3.69-3.68-3.69h-31.87Z"/>
        </g>
        <path class="cls-1" d="M1214.47,79.97c-65.1-.55-117.98,52.33-117.44,117.43.53,63.22,52.19,114.9,115.41,115.44,65.12.56,118.02-52.35,117.46-117.47-.55-63.22-52.22-114.87-115.43-115.4ZM1214.94,274.37c-44.17.82-80.13-35.16-79.3-79.32.78-41.61,34.75-75.56,76.36-76.33,44.15-.81,80.1,35.15,79.28,79.3-.77,41.62-34.73,75.57-76.34,76.35Z"/>
      </g>
      <g>
        <g>
          <path class="cls-1" d="M2209.43,79.75h-31.87c-2.04,0-3.68,1.65-3.69,3.68v25.12c0,.08,0,.14,0,.14s0,.06,0,.14v199.86c0,2.04,1.65,3.69,3.68,3.69h35.41c.08,0,.14-.06.14-.14V106.24c0-.08,0-.14,0-.14s0-.06,0-.14v-22.52c0-2.04-1.65-3.69-3.68-3.69Z"/>
          <path class="cls-1" d="M2193.48,55.56c15.39,0,28.01-12.75,27.79-28.18-.2-14.32-11.59-26.33-25.87-27.31-16.09-1.1-29.69,11.81-29.69,27.71s12.53,27.79,27.77,27.79Z"/>
        </g>
        <path class="cls-1" d="M1560.97,312.31h-31.59c-2.04,0-3.69-1.65-3.69-3.69V6.24c0-2.04,1.65-3.69,3.69-3.69h31.59c2.04,0,3.69,1.65,3.69,3.69v142.67c0,7.9,9.57,11.83,15.12,6.21l22.65-22.94,61.46-61.98c3.88-3.88,5.99-5.02,11.91-4.98l28.84-.03c3.23,0,4.9,3.86,2.69,6.21l-99.94,106.15c-3.3,3.3-3.46,8.61-.37,12.1l103.33,116.54c2.11,2.38.42,6.13-2.76,6.13h-36.3c-4.49,0-7.89-2.04-10.63-4.79l-67.43-76.15c-9.97-11.26-28.58-4.21-28.58,10.84v66.41c0,2.04-1.64,3.69-3.68,3.69Z"/>
        <path class="cls-1" d="M2098.31,6.69v31.93c0,2.03-1.63,3.67-3.66,3.68l-30.6.22c-21.64,0-34.11,7.58-40.59,17.32-7.05,10.29-7.58,23.82-7.58,35.19v17.76c0,10.32,8.37,18.69,18.69,18.69h60.06c2.04,0,3.69,1.65,3.69,3.69v28.35c0,2.04-1.65,3.69-3.69,3.69h-60.06c-10.32,0-18.69,8.37-18.69,18.69v123.07c0,2.04-1.65,3.69-3.69,3.69h-31.59c-2.04,0-3.69-1.65-3.69-3.69v-93.75h0v-35.72h0v-84.45c0-24.35,1.63-42.77,12.96-58.99,10.31-15.16,31.95-33.03,74.18-33.03h30.57c2.04,0,3.69,1.65,3.69,3.69Z"/>
        <rect class="cls-1" x="1748.47" y="176.78" width="147.05" height="39.24" rx="3.69" ry="3.69"/>
      </g>
    </g>
  </g>
</svg>