
<?xml version="1.0" encoding="UTF-8"?>
<svg id="_レイヤー_2" data-name="レイヤー 2" xmlns="http://www.w3.org/2000/svg" viewBox="0 0 695.58 312.64">
  <defs>
    <style>
      .cls-1 {
        fill: #040000;
        stroke-width: 0px;
      }
    </style>
  </defs>
  <g id="_レイヤー_1-2" data-name="レイヤー 1">
    <g>
      <g>
        <path class="cls-1" d="M683.73,79.75h-31.87c-2.04,0-3.68,1.65-3.69,3.68v25.12c0,.08,0,.14,0,.14s0,.06,0,.14v199.86c0,2.04,1.65,3.69,3.68,3.69h35.41c.08,0,.14-.06.14-.14V106.24c0-.08,0-.14,0-.14s0-.06,0-.14v-22.52c0-2.04-1.65-3.69-3.68-3.69Z"/>
        <path class="cls-1" d="M667.79,55.56c15.39,0,28.01-12.75,27.79-28.18-.2-14.32-11.59-26.33-25.87-27.31-16.09-1.1-29.69,11.81-29.69,27.71s12.53,27.79,27.77,27.79Z"/>
      </g>
      <path class="cls-1" d="M35.28,312.31H3.69c-2.04,0-3.69-1.65-3.69-3.69V6.24c0-2.04,1.65-3.69,3.69-3.69h31.59c2.04,0,3.69,1.65,3.69,3.69v142.67c0,7.9,9.57,11.83,15.12,6.21l22.65-22.94,61.46-61.98c3.88-3.88,5.99-5.02,11.91-4.98l28.84-.03c3.23,0,4.9,3.86,2.69,6.21l-99.94,106.15c-3.3,3.3-3.46,8.61-.37,12.1l103.33,116.54c2.11,2.38.42,6.13-2.76,6.13h-36.3c-4.49,0-7.89-2.04-10.63-4.79l-67.43-76.15c-9.97-11.26-28.58-4.21-28.58,10.84v66.41c0,2.04-1.64,3.69-3.68,3.69Z"/>
      <path class="cls-1" d="M572.62,6.69v31.93c0,2.03-1.63,3.67-3.66,3.68l-30.6.22c-21.64,0-34.11,7.58-40.59,17.32-7.05,10.29-7.58,23.82-7.58,35.19v17.76c0,10.32,8.37,18.69,18.69,18.69h60.06c2.04,0,3.69,1.65,3.69,3.69v28.35c0,2.04-1.65,3.69-3.69,3.69h-60.06c-10.32,0-18.69,8.37-18.69,18.69v123.07c0,2.04-1.65,3.69-3.69,3.69h-31.59c-2.04,0-3.69-1.65-3.69-3.69v-93.75h0v-35.72h0v-84.45c0-24.35,1.63-42.77,12.96-58.99,10.31-15.16,31.95-33.03,74.18-33.03h30.57c2.04,0,3.69,1.65,3.69,3.69Z"/>
      <rect class="cls-1" x="222.78" y="176.78" width="147.05" height="39.24" rx="3.69" ry="3.69"/>
    </g>
  </g>
</svg>